<?xml version="1.0" encoding="UTF-8" standalone="no"?>
<!-- Created with Inkscape (http://www.inkscape.org/) -->

<svg
   xmlns:dc="http://purl.org/dc/elements/1.1/"
   xmlns:cc="http://creativecommons.org/ns#"
   xmlns:rdf="http://www.w3.org/1999/02/22-rdf-syntax-ns#"
   xmlns:svg="http://www.w3.org/2000/svg"
   xmlns="http://www.w3.org/2000/svg"
   xmlns:xlink="http://www.w3.org/1999/xlink"
   xmlns:sodipodi="http://sodipodi.sourceforge.net/DTD/sodipodi-0.dtd"
   xmlns:inkscape="http://www.inkscape.org/namespaces/inkscape"
   width="640"
   height="480"
   id="svg3308"
   version="1.1"
   inkscape:version="0.48.3.1 r9886"
   sodipodi:docname="New document 2">
  <defs
     id="defs3310">
    <clipPath
       clipPathUnits="userSpaceOnUse"
       id="clipPath4139">
      <use
         x="0"
         y="0"
         xlink:href="#path3327"
         id="use4141"
         width="1"
         height="1" />
    </clipPath>
  </defs>
  <sodipodi:namedview
     id="base"
     pagecolor="#ffffff"
     bordercolor="#666666"
     borderopacity="1.0"
     inkscape:pageopacity="0.0"
     inkscape:pageshadow="2"
     inkscape:zoom="0.7"
     inkscape:cx="-45.311231"
     inkscape:cy="295.26634"
     inkscape:document-units="px"
     inkscape:current-layer="layer1"
     showgrid="false"
     inkscape:window-width="1366"
     inkscape:window-height="746"
     inkscape:window-x="-8"
     inkscape:window-y="-8"
     inkscape:window-maximized="1" />
  <metadata
     id="metadata3313">
    <rdf:RDF>
      <cc:Work
         rdf:about="">
        <dc:format>image/svg+xml</dc:format>
        <dc:type
           rdf:resource="http://purl.org/dc/dcmitype/StillImage" />
        <dc:title></dc:title>
      </cc:Work>
    </rdf:RDF>
  </metadata>
  <g
     inkscape:label="Layer 1"
     inkscape:groupmode="layer"
     id="layer1"
     transform="translate(0,-572.36218)">
    <image
       y="50.856972"
       x="6.2894373"
       id="image4105"
       xlink:href="file:///C:/Users/Javier/Desktop/jenga-engineer/assets/img/bg.png"
       height="1007"
       width="642" />
    <path
       style="fill:#ffffff;fill-opacity:1;stroke:none"
       d="m 157.07872,729.87098 c 2.91909,2.9191 7.1654,1.53802 15.11082,3.19373 5.22481,1.08878 11.80139,-4.05714 17.85318,-1.51143 15.00356,6.31133 40.77714,-1.17723 40.77714,-1.17723 0,0 6.45443,-7.64241 3.78807,-13.13198 -4.29315,-8.83884 -15.40483,-7.32361 -15.40483,-7.32361 0,0 5.02392,-7.78321 -2.27284,-12.12183 -1.76637,-1.05028 -4.39757,-1.90009 -4.23458,-2.55739 1.90389,-2.47422 -11.74313,2.29102 -14.20071,3.31501 -2.06269,0.85945 -8.60021,1.94442 -7.79329,-1.51456 2.25809,-1.44342 -4.72166,-1.99718 -7.86406,-2.27351 -8.81875,-0.77549 -17.1726,6.81852 -17.42514,11.11167 -0.25254,4.29315 0.25254,10.35407 0.25254,10.35407 0,0 -6.81853,-1.76777 -8.08122,1.26269 -4.78363,-1.1688 -3.64242,9.23702 -0.50508,12.37437 z"
       id="path3327"
       inkscape:connector-curvature="0"
       sodipodi:nodetypes="ssscscscscssccs" />
    <path
       sodipodi:nodetypes="ccsscccc"
       style="fill:#e1fbff;fill-opacity:1;stroke:none"
       d="m 149.75511,725.57783 c 19.69797,2.02031 28.91562,-2.52538 28.91562,-2.52538 0,0 17.80394,5.55584 22.8547,3.53553 5.05077,-2.0203 20.70813,2.02031 25.75889,-2.0203 5.05077,-4.04061 9.59645,-7.57615 9.59645,-7.57615 l 2.52539,37.12311 -91.04001,0.12627 z"
       id="path4121"
       inkscape:connector-curvature="0"
       clip-path="url(#clipPath4139)" />
  </g>
</svg>
