<?xml version="1.0" encoding="UTF-8" standalone="no"?>
<!-- Created with Inkscape (http://www.inkscape.org/) -->

<svg
   xmlns:dc="http://purl.org/dc/elements/1.1/"
   xmlns:cc="http://creativecommons.org/ns#"
   xmlns:rdf="http://www.w3.org/1999/02/22-rdf-syntax-ns#"
   xmlns:svg="http://www.w3.org/2000/svg"
   xmlns="http://www.w3.org/2000/svg"
   xmlns:xlink="http://www.w3.org/1999/xlink"
   xmlns:sodipodi="http://sodipodi.sourceforge.net/DTD/sodipodi-0.dtd"
   xmlns:inkscape="http://www.inkscape.org/namespaces/inkscape"
   width="640"
   height="480"
   id="svg3308"
   version="1.1"
   inkscape:version="0.48.3.1 r9886"
   sodipodi:docname="canvas.svg">
  <defs
     id="defs3310">
    <linearGradient
       id="linearGradient4003">
      <stop
         style="stop-color:#467cbf;stop-opacity:1;"
         offset="0"
         id="stop4005" />
      <stop
         style="stop-color:#63fffb;stop-opacity:1;"
         offset="1"
         id="stop4007" />
    </linearGradient>
    <clipPath
       clipPathUnits="userSpaceOnUse"
       id="clipPath4139">
      <use
         x="0"
         y="0"
         xlink:href="#path3327"
         id="use4141"
         width="1"
         height="1" />
    </clipPath>
    <clipPath
       clipPathUnits="userSpaceOnUse"
       id="clipPath3826">
      <use
         x="0"
         y="0"
         xlink:href="#path3804"
         id="use3828"
         transform="translate(-21.213203,-579.43325)"
         width="1"
         height="1" />
    </clipPath>
    <clipPath
       clipPathUnits="userSpaceOnUse"
       id="clipPath3830">
      <use
         x="0"
         y="0"
         xlink:href="#path3804"
         id="use3832"
         transform="translate(-21.213203,-579.43325)"
         width="1"
         height="1" />
    </clipPath>
    <clipPath
       clipPathUnits="userSpaceOnUse"
       id="clipPath3834">
      <use
         x="0"
         y="0"
         xlink:href="#path3804"
         id="use3836"
         transform="translate(-21.213203,-579.43325)"
         width="1"
         height="1" />
    </clipPath>
    <clipPath
       clipPathUnits="userSpaceOnUse"
       id="clipPath3905">
      <use
         height="1"
         width="1"
         id="use3907"
         xlink:href="#path3804"
         y="0"
         x="0"
         transform="translate(-21.213203,-579.43325)" />
    </clipPath>
    <clipPath
       clipPathUnits="userSpaceOnUse"
       id="clipPath3909">
      <use
         height="1"
         width="1"
         id="use3911"
         xlink:href="#path3804"
         y="0"
         x="0"
         transform="translate(-21.213203,-579.43325)" />
    </clipPath>
    <clipPath
       clipPathUnits="userSpaceOnUse"
       id="clipPath3913">
      <use
         height="1"
         width="1"
         id="use3915"
         xlink:href="#path3804"
         y="0"
         x="0"
         transform="translate(-21.213203,-579.43325)" />
    </clipPath>
    <clipPath
       clipPathUnits="userSpaceOnUse"
       id="clipPath3917">
      <use
         height="1"
         width="1"
         id="use3919"
         xlink:href="#path3804"
         y="0"
         x="0"
         transform="translate(-21.213203,-579.43325)" />
    </clipPath>
    <clipPath
       clipPathUnits="userSpaceOnUse"
       id="clipPath3921">
      <use
         height="1"
         width="1"
         id="use3923"
         xlink:href="#path3804"
         y="0"
         x="0"
         transform="translate(-21.213203,-579.43325)" />
    </clipPath>
    <linearGradient
       inkscape:collect="always"
       xlink:href="#linearGradient4003"
       id="linearGradient4017"
       x1="-884.87585"
       y1="18.592432"
       x2="-884.87585"
       y2="1018.1604"
       gradientUnits="userSpaceOnUse"
       gradientTransform="translate(1226.2959,33.655484)" />
    <clipPath
       clipPathUnits="userSpaceOnUse"
       id="clipPath4142">
      <use
         x="0"
         y="0"
         xlink:href="#path4030"
         id="use4144"
         transform="translate(0,-572.36218)"
         width="1"
         height="1" />
    </clipPath>
    <clipPath
       clipPathUnits="userSpaceOnUse"
       id="clipPath4177">
      <use
         x="0"
         y="0"
         xlink:href="#path3233"
         id="use4179"
         width="1"
         height="1" />
    </clipPath>
    <clipPath
       clipPathUnits="userSpaceOnUse"
       id="clipPath4191">
      <use
         x="0"
         y="0"
         xlink:href="#rect4183"
         id="use4193"
         transform="translate(0,-572.36218)"
         width="1"
         height="1" />
    </clipPath>
    <clipPath
       clipPathUnits="userSpaceOnUse"
       id="clipPath4205">
      <use
         x="0"
         y="0"
         xlink:href="#path3233"
         id="use4207"
         width="1"
         height="1" />
    </clipPath>
    <clipPath
       clipPathUnits="userSpaceOnUse"
       id="clipPath4225">
      <use
         x="0"
         y="0"
         xlink:href="#path4219"
         id="use4227"
         transform="translate(0,-572.36218)"
         width="1"
         height="1" />
    </clipPath>
    <clipPath
       clipPathUnits="userSpaceOnUse"
       id="clipPath4255">
      <use
         x="0"
         y="0"
         xlink:href="#path3233"
         id="use4257"
         width="1"
         height="1" />
    </clipPath>
  </defs>
  <sodipodi:namedview
     id="base"
     pagecolor="#ffffff"
     bordercolor="#666666"
     borderopacity="1.0"
     inkscape:pageopacity="0.0"
     inkscape:pageshadow="2"
     inkscape:zoom="0.35355339"
     inkscape:cx="76.073224"
     inkscape:cy="646.11084"
     inkscape:document-units="px"
     inkscape:current-layer="g4209"
     showgrid="false"
     inkscape:window-width="1366"
     inkscape:window-height="746"
     inkscape:window-x="-8"
     inkscape:window-y="-8"
     inkscape:window-maximized="1"
     borderlayer="true"
     inkscape:snap-bbox="false"
     inkscape:snap-bbox-edge-midpoints="true"
     inkscape:snap-global="false" />
  <metadata
     id="metadata3313">
    <rdf:RDF>
      <cc:Work
         rdf:about="">
        <dc:format>image/svg+xml</dc:format>
        <dc:type
           rdf:resource="http://purl.org/dc/dcmitype/StillImage" />
        <dc:title></dc:title>
      </cc:Work>
    </rdf:RDF>
  </metadata>
  <g
     inkscape:label="Layer 1"
     inkscape:groupmode="layer"
     id="layer1"
     transform="translate(0,-572.36218)">
    <image
       y="1050.1082"
       x="166.62695"
       id="image3799"
       xlink:href="file:///C:/Users/Javier/Desktop/Untitled.png"
       height="565"
       width="551" />
    <image
       y="-12.070414"
       x="-1042.5697"
       id="image4105"
       xlink:href="file:///C:/Users/Javier/Desktop/jenga-engineer/assets/img/bg.png"
       height="1007"
       width="642" />
    <path
       style="fill:#876055;fill-opacity:1;fill-rule:nonzero;stroke:none;stroke-width:0.50000000000000000;stroke-miterlimit:4;stroke-opacity:1;stroke-dasharray:none"
       d="m 401.63665,993.35952 c 0,0 6.71752,-2.47487 4.94975,-9.19238 -1.76777,-6.71752 -9.54594,-10.25305 -9.54594,-10.25305 l 54.09367,-9.19239 c 0,0 -4.24264,12.02081 -6.01041,14.14213 -1.76777,2.12132 -3.18198,2.47488 -6.01041,2.82843 -2.82843,0.35356 -4.59619,4.24264 -4.59619,5.65686 0,1.41421 8.13173,6.36396 8.13173,6.36396 z"
       id="path4523"
       inkscape:connector-curvature="0"
       transform="translate(0,572.36218)" />
    <path
       style="fill:#00a354;fill-opacity:1;fill-rule:nonzero;stroke:none;opacity:1"
       d="m 436.28488,976.38896 c 0,0 22.27387,0.70711 26.16296,-2.82843 3.88908,-3.53553 14.49568,-4.59619 13.08147,-6.71751 -1.41421,-2.12132 11.31371,-13.43503 8.13173,-21.2132 -3.18198,-7.77818 -10.25305,-16.97057 -20.15254,-18.03123 -9.8995,-1.06066 -11.84405,-1.94454 -13.25826,-0.53033 -1.41421,1.41422 3.35876,-3.0052 6.54074,-4.77296 3.18198,-1.76777 7.47462,-0.88251 12.72792,0.35355 3.00521,0.7071 11.31371,-2.12132 0.35356,-12.72793 -10.96016,-10.6066 -19.44544,-12.55114 -19.44544,-12.55114 0,0 -2.82843,-6.18719 -8.48528,-8.66206 -5.65686,-2.47487 -7.07107,-7.42462 -14.84924,-4.94975 -7.77818,2.47488 -13.08148,3.35876 -17.67768,5.83363 -4.59619,2.47488 -13.78858,6.54074 -15.55634,9.72272 -1.76777,3.18198 -9.8995,7.42462 -8.83884,9.8995 1.06066,2.47487 7.24785,3.7123 10.78338,4.06586 3.53554,0.35355 -7.95495,2.65165 -9.72272,6.89429 -1.76776,4.24264 -9.19239,9.19239 -9.19239,13.43503 0,1.76777 15.99322,1.7881 14.14214,9.19239 -0.53033,2.12132 -12.9047,9.01561 -12.37437,12.02081 1.06066,6.01041 8.48528,5.83364 7.77818,10.96016 -0.73581,5.33466 -16.44024,7.60139 -16.26346,10.25305 0.65893,9.88387 27.93072,7.42462 33.94113,5.3033 6.0104,-2.12132 17.67767,-13.08148 17.67767,-13.08148 0,0 6.36396,8.48528 11.66726,8.83884 5.3033,0.35355 2.82842,-0.70711 2.82842,-0.70711 z"
       id="path4525"
       inkscape:connector-curvature="0"
       transform="translate(0,572.36218)"
       sodipodi:nodetypes="csssssssscssssssssssssscsc" />
    <path
       style="fill:#20bb00;fill-opacity:1;fill-rule:nonzero;stroke:none"
       d="m 428.86026,958.53451 c 7.24785,-4.41941 10.60661,-7.42462 13.25826,-6.18718 2.65165,1.23744 12.55114,0.88388 11.3137,2.82843 -1.23743,1.94454 -3.57418,4.32815 -7.91726,0.96751 -4.98008,-3.85355 -16.6547,2.39124 -16.6547,2.39124 z"
       id="path4527"
       inkscape:connector-curvature="0"
       transform="translate(0,572.36218)"
       sodipodi:nodetypes="csssc" />
    <path
       style="fill:#20bb00;fill-opacity:1;fill-rule:nonzero;stroke:none"
       d="m 428.86026,937.49809 c 4.39734,-4.98528 21.0646,-6.04074 22.12526,-5.68719 1.06067,0.35356 3.72272,0.36396 14.82107,9.75305 3.59358,3.04014 -21.17031,-6.75 -21.17031,-6.75 0,0 -6.8085,1.31587 -13.6547,7.28033 -4.37217,3.80907 -2.12132,-4.59619 -2.12132,-4.59619 z"
       id="path4529"
       inkscape:connector-curvature="0"
       transform="translate(0,572.36218)"
       sodipodi:nodetypes="csscsc" />
    <path
       style="fill:#20bb00;fill-opacity:1;fill-rule:nonzero;stroke:none"
       d="m 434.16356,906.38539 c 6.18719,-5.65685 17.67767,-5.83363 17.67767,-5.83363 l 5.3033,2.82843 c 0,0 4.61397,6.97487 -1.41421,2.8033 -6.80579,-4.70968 -10.17246,-3.20191 -12.60445,-1.96967 -3.24704,1.64521 -8.96231,2.17157 -8.96231,2.17157 z"
       id="path4531"
       inkscape:connector-curvature="0"
       transform="translate(0,572.36218)"
       sodipodi:nodetypes="cccssc" />
    <path
       style="fill:#20bb00;fill-opacity:1;fill-rule:nonzero;stroke:none"
       d="m 423.20341,899.13755 c -7.95495,-4.94975 -13.96536,-7.6014 -17.67767,-5.30331 -3.71231,2.2981 -0.0432,2.2182 1.53249,1.99785 6.5,-0.90901 10.61867,1.88623 12.02081,2.47487 4.48744,1.88389 4.12437,0.83059 4.12437,0.83059 z"
       id="path4533"
       inkscape:connector-curvature="0"
       transform="translate(0,572.36218)"
       sodipodi:nodetypes="csssc" />
    <path
       style="fill:#20bb00;fill-opacity:1;fill-rule:nonzero;stroke:none"
       d="m 416.30912,926.0076 c 6.89429,-9.01561 16.44023,-8.48528 16.61701,-7.77817 0.17677,0.70711 5.83363,6.36396 5.83363,6.36396 0,0 2.51777,-1.90381 -6.67462,-2.78769 -9.19239,-0.88388 -15.77602,4.2019 -15.77602,4.2019 z"
       id="path4535"
       inkscape:connector-curvature="0"
       transform="translate(0,572.36218)"
       sodipodi:nodetypes="cccsc" />
    <path
       style="fill:#20bb00;fill-opacity:1;fill-rule:nonzero;stroke:none"
       d="m 399.33856,964.89848 c 10.78337,-8.66206 14.84924,-11.66727 16.26345,-6.01041 1.41421,5.65685 -0.34099,-1.66117 -5.33363,2.91206 -3.13124,2.8682 -10.92982,3.09835 -10.92982,3.09835 z"
       id="path4537"
       inkscape:connector-curvature="0"
       transform="translate(0,572.36218)"
       sodipodi:nodetypes="cssc" />
    <path
       style="fill:#20bb00;fill-opacity:1;fill-rule:nonzero;stroke:none"
       d="m 389.26228,927.42182 c 9.36917,-9.01562 15.55635,-10.42983 18.03123,-7.24785 2.47487,3.18198 0.94454,1.70495 -2.76777,2.05851 -3.71231,0.35355 -7.17983,0.0303 -12.08148,6.78033 -1.55808,2.14561 -3.18198,-1.59099 -3.18198,-1.59099 z"
       id="path4539"
       inkscape:connector-curvature="0"
       transform="translate(0,572.36218)"
       sodipodi:nodetypes="csssc" />
    <path
       style="fill:#20bb00;fill-opacity:1;fill-rule:nonzero;stroke:none"
       d="m 393.32815,953.05444 c 5.3033,-8.83884 13.08147,-10.96016 14.49569,-9.8995 1.41421,1.06066 6.54073,2.2981 5.65685,5.83363 -0.88388,3.53554 -5.19023,-12.97182 -18.03122,6.36396 -1.17763,1.77325 -2.12132,-2.29809 -2.12132,-2.29809 z"
       id="path4541"
       inkscape:connector-curvature="0"
       transform="translate(0,572.36218)"
       sodipodi:nodetypes="csssc" />
    <g
       id="g4209"
       inkscape:export-filename="C:\Users\Javier\Desktop\jenga-engineer\assets\img\bg.png"
       inkscape:export-xdpi="90"
       inkscape:export-ydpi="90">
      <path
         inkscape:export-ydpi="90"
         inkscape:export-xdpi="90"
         inkscape:export-filename="C:\Users\Javier\Desktop\jenga-engineer\assets\img\bg.png"
         inkscape:connector-curvature="0"
         id="path3233"
         d="M 1.2585455,1055.405 -0.24145447,49.654967 641.85009,49.885257 641.75859,1057.155 z"
         style="fill:url(#linearGradient4017);fill-opacity:1;fill-rule:nonzero;stroke:none" />
      <g
         id="g4241"
         clip-path="url(#clipPath4255)"
         inkscape:export-filename="C:\Users\Javier\Desktop\jenga-engineer\assets\img\bg.png"
         inkscape:export-xdpi="90"
         inkscape:export-ydpi="90">
        <g
           transform="translate(-149,3.999999)"
           id="g4229">
          <path
             style="fill:#050d16;fill-opacity:1;fill-rule:nonzero;stroke:none"
             d="M -52,292 C 252,156 256.60012,13.8702 274.5,-29.999999 c 18.3986,-45.092494 37.89548,-45.62211 48,-47 11,-1.5 28.5,6 48.5,38 C 391,-6.999999 514,192 632,256 750,320 884,418 884,418 L -162,404 z"
             id="path4219"
             inkscape:connector-curvature="0"
             transform="translate(0,572.36218)"
             sodipodi:nodetypes="cssssccc" />
          <path
             style="fill:#ececec;fill-opacity:1;fill-rule:nonzero;stroke:none"
             d="m 262.5,-32.5 c 11,24.0000003 14,38.0000003 24.5,32.00000025 C 297.5,-6.4999997 293.5,-21 308,-21.5 322.5,-22 313,0.50000025 326.5,2.5325727e-7 340,-0.49999975 333.5,-14 341.5,-20 c 8,-6 17,16.0000003 23,18.0000003 C 370.5,2.5325727e-7 381,-25.5 380.5,-30.5 380,-35.5 398,-19 398,-19 l -32.5,-105.5 -85,-3 z"
             id="path4221"
             inkscape:connector-curvature="0"
             transform="translate(0,572.36218)"
             sodipodi:nodetypes="csssssscccc"
             clip-path="url(#clipPath4225)" />
        </g>
        <g
           id="g4195"
           clip-path="url(#clipPath4205)"
           inkscape:export-filename="C:\Users\Javier\Desktop\jenga-engineer\assets\img\bg.png"
           inkscape:export-xdpi="90"
           inkscape:export-ydpi="90">
          <g
             inkscape:export-ydpi="90"
             inkscape:export-xdpi="90"
             inkscape:export-filename="C:\Users\Javier\Desktop\jenga-engineer\assets\img\bg.png"
             clip-path="url(#clipPath4177)"
             id="g4172">
            <path
               style="fill:#132d49;fill-opacity:1;fill-rule:nonzero;stroke:none"
               d="m -16.448747,784.61315 27.5,2 0.5,21.5 9.5,0 0,-15.5 25.5,-0.5 -1,-4.5 7.999995,-0.5 -1.5,-100.5 90.500002,-1.5 1,23 32,1 0.5,-7 5.5,-0.5 0,8 28,-0.5 1,21 5.5,4 -0.5,27 c 0,0 4.5,4 4.5,0 0,-4 -1,-5.5 -1,-5.5 l 17.14645,-0.26777 0.76776,6.26777 8.73224,0.29289 -0.14645,-3.29289 11.79289,0.5 1.06066,-7.31802 13.14645,0.31802 1.5,-32 53.5,1 0,-3 9,0 0,3.5 6,0 0.5,123 24.5,-0.23223 -0.5,-26.76777 6.5,-1 0,-4 5.5,1.5 -2,-164 7,-1.5 -2,-32 6,0 -0.5,-13 3.5,0 0.75,-10.75 5.25,0.25 0,-4.5 c 0,0 14.5283,2.73664 15.25,-16.75 0.5,-13.5 -5.0865,-33.53377 -3,-38.75 1.5,-3.75 1.25,2.25 4.75,-8 1.6579,-11.69458 1.25,-32.5 1.25,-32.5 l 1.75,-0.75 c 0,0 -0.5803,20.41414 0.75,34 2.3289,3.35868 2.4012,4.576 5.5,8.5 2.4869,3.14924 -3.5,25.25 -2.5,38 3.70736,19.6636 14,17 14,17 l 2,4.25 5.3256,-0.75801 0.7946,9.35483 6.4016,0.89876 -0.022,30.50442 0.75,18.25 12.5,0.25 1.25,205 c 0,0 7.75,2 7.75,0.75 0,-1.25 0,-3.75 0,-3.75 l 16.75,0.5 -0.25,2.75 4.5,-0.25 -1,-26.75 5.25,-3 -1.25,-21.5 16.25,-0.75 54.25,-0.5 -0.25,-12 94.5,1.25 27.2132,341.09785 -720.13477,-8.5858 -4.828427,-342.26205 z"
               id="path3231"
               inkscape:connector-curvature="0"
               sodipodi:nodetypes="cccccccccccccccccccscccccccccccccccccccccccccccccssccccsccccccccccsccccccccccccccc"
               clip-path="none"
               inkscape:export-filename="C:\Users\Javier\Desktop\jenga-engineer\assets\img\bg.png"
               inkscape:export-xdpi="90"
               inkscape:export-ydpi="90" />
            <path
               style="fill:#d7990d;fill-opacity:1;fill-rule:nonzero;stroke:none"
               d="m -100.40916,491.31371 c 264.45793,-176.7767 388.90873,-149.90664 388.90873,-149.90664 0,0 124.45079,9.8995 214.96046,56.56854 90.50967,46.66905 197.9899,22.62742 197.9899,22.62742 0,0 90.50966,113.13709 86.26702,118.79394 -4.24264,5.65685 -882.469259,25.45584 -882.469259,25.45584"
               id="path4030"
               inkscape:connector-curvature="0"
               clip-path="none"
               transform="translate(0,572.36218)" />
            <path
               inkscape:export-ydpi="90"
               inkscape:export-xdpi="90"
               inkscape:export-filename="C:\Users\Javier\Desktop\jenga-engineer\assets\img\bg.png"
               style="fill:#f4c457;fill-opacity:1;fill-rule:nonzero;stroke:none"
               d="m 269.40768,346.35682 c 70.00357,-6.36396 95.45942,-16.26346 95.45942,-16.26346 l -221.32442,-14.84924 -270.8219,188.0904 c 0,0 81.317279,11.31371 91.216774,7.77818 9.899495,-3.53554 85.728703,-84.84577 126.572114,-102.53048 63.126882,-27.33319 121.148302,-55.90311 178.898012,-62.2254 z"
               id="path4138"
               inkscape:connector-curvature="0"
               transform="translate(0,572.36218)"
               clip-path="url(#clipPath4142)"
               sodipodi:nodetypes="ccccssc" />
          </g>
          <path
             sodipodi:nodetypes="ccccc"
             inkscape:connector-curvature="0"
             id="rect4183"
             d="m -5.6568544,459.49389 644.8814044,-2.12132 0,22.62742 -644.8814044,2.12132 z"
             style="fill:#6e6a59;fill-opacity:1;fill-rule:nonzero;stroke:none"
             transform="translate(0,572.36218)" />
          <path
             clip-path="url(#clipPath4191)"
             sodipodi:nodetypes="ccccc"
             inkscape:connector-curvature="0"
             id="rect4186"
             d="m -19.091883,453.12994 658.316403,2.12132 5.65685,7.77817 -664.68036,0.35356 z"
             style="fill:#8a8570;fill-opacity:1;fill-rule:nonzero;stroke:none"
             transform="translate(0,572.36218)" />
        </g>
      </g>
    </g>
    <use
       x="0"
       y="0"
       xlink:href="#path3327"
       id="use3005"
       transform="translate(238.57143,78.571429)"
       width="640"
       height="480" />
    <use
       x="0"
       y="0"
       xlink:href="#use3005"
       id="use3007"
       transform="translate(48.571429,-181.42857)"
       width="640"
       height="480" />
    <g
       id="g4361"
       transform="matrix(0,-1,1,0,-821.77666,1207.6054)"
       inkscape:export-filename="C:\Users\Javier\Desktop\jenga-engineer\assets\img\block_lattice.png"
       inkscape:export-xdpi="90"
       inkscape:export-ydpi="90">
      <g
         id="g4326">
        <path
           style="fill:#58726c;fill-opacity:1;stroke:none"
           d="m 207.83429,999.76138 -29.83984,0.0156 0,29.84372 29.8125,0 z m -21.96484,4.14062 13.1875,0.1875 -6.0625,6.5937 z m -3.40625,3.2187 6.4375,7.125 -6.78125,7.1563 z m 21.0625,0.875 0,12.875 -6.0625,-6.625 z m -10.71875,10.9063 6.25,5.5312 -12.65625,0.3438 z"
           id="path3804"
           inkscape:connector-curvature="0"
           sodipodi:nodetypes="ccccccccccccccccccccc" />
      </g>
      <path
         sodipodi:nodetypes="cccccc"
         clip-path="url(#clipPath3921)"
         transform="translate(21.213203,579.43325)"
         inkscape:connector-curvature="0"
         id="path3816"
         d="m 164.46429,425.71429 -1.66965,-2.37056 17.42846,0.17633 -8.22667,8.93265 -0.12143,-7.00628 z"
         style="fill:#3e424d;fill-opacity:1;stroke:none" />
      <path
         sodipodi:nodetypes="cccccc"
         clip-path="url(#clipPath3834)"
         transform="translate(21.213203,579.43325)"
         inkscape:connector-curvature="0"
         id="path3818"
         d="m 171.71921,437.5415 c -0.0893,0.35714 9.35222,8.7085 9.35222,8.7085 l -17.14286,0.17857 3.37054,-2.92411 c 0,0 3.72768,-0.55803 4.08482,-0.82589 0.35714,-0.26785 0.33528,-5.13707 0.33528,-5.13707 z"
         style="fill:#3e424d;fill-opacity:1;stroke:none" />
      <path
         sodipodi:nodetypes="ccccccc"
         clip-path="url(#clipPath3830)"
         transform="translate(21.213203,579.43325)"
         inkscape:connector-curvature="0"
         id="path3820"
         d="m 161.07412,425.17767 c 0.0893,0.44643 8.48484,9.55088 8.48484,9.55088 l -8.6661,9.29649 0.44643,-6.25718 2.32142,-2.32143 -2.23214,-6.78572 z"
         style="fill:#3e424d;fill-opacity:1;stroke:none" />
      <path
         clip-path="url(#clipPath3917)"
         sodipodi:nodetypes="ccccc"
         transform="translate(21.213203,579.43325)"
         inkscape:connector-curvature="0"
         id="path3842"
         d="m 183.01591,443.19448 -7.932,-8.46772 8.93395,-9.28033 -0.50508,1.65758 L 180,432.5"
         style="fill:#75926e;fill-opacity:1;stroke:none" />
      <path
         sodipodi:nodetypes="cccccc"
         clip-path="url(#clipPath3913)"
         transform="translate(21.213203,579.43325)"
         inkscape:connector-curvature="0"
         id="path3844"
         d="m 162.41161,446.55846 9.24152,-8.88617 0.088,3.15361 -4.57959,2.77653 -3.16729,2.78285 z"
         style="fill:#75926e;fill-opacity:1;stroke:none" />
      <path
         sodipodi:nodetypes="ccccc"
         clip-path="url(#clipPath3909)"
         transform="translate(21.213203,579.43325)"
         inkscape:connector-curvature="0"
         id="path3848"
         d="m 161.33929,427.94643 -1.07233,-1.43126 -0.35893,16.96787 4.19911,-6.2509 -1.33928,-8.21428"
         style="fill:#75926e;fill-opacity:1;stroke:none" />
      <path
         sodipodi:nodetypes="ccccccc"
         clip-path="url(#clipPath3905)"
         transform="translate(21.213203,579.43325)"
         inkscape:connector-curvature="0"
         id="path3850"
         d="m 166.78571,424.91071 c -0.35714,-0.0893 -1.96428,-0.26785 -1.96428,-0.26785 l -2.11607,-1.27679 0.50893,1.33036 8.92678,8.25359 0.002,-4.28931 z"
         style="fill:#75926e;fill-opacity:1;stroke:none" />
      <path
         sodipodi:nodetypes="ccccc"
         clip-path="url(#clipPath3826)"
         transform="translate(21.213203,579.43325)"
         inkscape:connector-curvature="0"
         id="path3822"
         d="m 180.98214,430.08929 2.41969,-2.82465 -0.15691,16.15885 -3.78063,-8.24492 z"
         style="fill:#3e424d;fill-opacity:1;stroke:none" />
      <path
         transform="translate(0,572.36218)"
         d="m 181.72644,430.10477 c 0,0.56138 -0.45509,1.01646 -1.01646,1.01646 -0.56138,0 -1.01647,-0.45508 -1.01647,-1.01646 0,-0.56138 0.45509,-1.01647 1.01647,-1.01647 0.56137,0 1.01646,0.45509 1.01646,1.01647 z"
         sodipodi:ry="1.016466"
         sodipodi:rx="1.016466"
         sodipodi:cy="430.10477"
         sodipodi:cx="180.70998"
         id="path3925"
         style="fill:#75926e;fill-opacity:1;fill-rule:nonzero;stroke:#3e424d;stroke-width:0.5;stroke-miterlimit:4;stroke-opacity:1;stroke-dasharray:none"
         sodipodi:type="arc" />
      <use
         height="480"
         width="640"
         transform="translate(-0.70710678,24.395184)"
         id="use3927"
         xlink:href="#path3925"
         y="0"
         x="0" />
      <use
         height="480"
         width="640"
         transform="translate(25.102291,0)"
         id="use3929"
         xlink:href="#use3927"
         y="0"
         x="0" />
      <use
         height="480"
         width="640"
         transform="translate(-0.1767767,-24.218407)"
         id="use3931"
         xlink:href="#use3929"
         y="0"
         x="0" />
    </g>
    <use
       x="0"
       y="0"
       xlink:href="#g4361"
       id="use4509"
       transform="translate(29.8125,0)"
       width="640"
       height="480" />
    <use
       x="0"
       y="0"
       xlink:href="#g4361"
       id="use4511"
       transform="translate(59.5,0)"
       width="640"
       height="480" />
    <use
       x="0"
       y="0"
       xlink:href="#g4361"
       id="use4515"
       transform="translate(89.1875,0)"
       width="640"
       height="480" />
    <use
       x="0"
       y="0"
       xlink:href="#use4515"
       id="use4517"
       transform="translate(29.6875,0)"
       width="640"
       height="480" />
    <use
       x="0"
       y="0"
       xlink:href="#g4361"
       id="use4521"
       transform="translate(148.70711,0)"
       width="640"
       height="480" />
    <use
       x="0"
       y="0"
       xlink:href="#g3883"
       id="use3928"
       transform="translate(29.625261,0)"
       width="640"
       height="480" />
    <use
       x="0"
       y="0"
       xlink:href="#g3883"
       id="use3930"
       transform="translate(59.1875,0)"
       width="640"
       height="480" />
    <use
       x="0"
       y="0"
       xlink:href="#g3883"
       id="use3932"
       transform="translate(88.75,0)"
       width="640"
       height="480" />
    <g
       id="g3883">
      <path
         inkscape:connector-curvature="0"
         id="path3879"
         d="m 157.54858,959.74787 0.0937,29.84379 29.84375,0.031 -0.0312,-29.90629 z"
         style="fill:#b36a2d;fill-opacity:1;fill-rule:nonzero;stroke:none" />
      <rect
         y="975.08264"
         x="175.46858"
         height="2"
         width="6.625"
         id="rect4953"
         style="fill:#94592d;fill-opacity:1;fill-rule:nonzero;stroke:none" />
      <rect
         y="975.08264"
         x="182.90607"
         height="2.125"
         width="4.1875"
         id="rect4957"
         style="fill:#94592d;fill-opacity:1;fill-rule:nonzero;stroke:none" />
      <rect
         y="975.20764"
         x="167.34358"
         height="1.8125"
         width="6.75"
         id="rect4959"
         style="fill:#94592d;fill-opacity:1;fill-rule:nonzero;stroke:none" />
      <rect
         y="972.3327"
         x="163.65608"
         height="1.75"
         width="6.75"
         id="rect4961"
         style="fill:#94592d;fill-opacity:1;fill-rule:nonzero;stroke:none" />
      <rect
         y="972.3327"
         x="171.09358"
         height="1.6875"
         width="6.9375"
         id="rect4963"
         style="fill:#94592d;fill-opacity:1;fill-rule:nonzero;stroke:none" />
      <rect
         y="969.2077"
         x="167.28108"
         height="1.6875"
         width="6.875"
         id="rect4967"
         style="fill:#94592d;fill-opacity:1;fill-rule:nonzero;stroke:none" />
      <rect
         y="969.11395"
         x="157.65608"
         height="1.96875"
         width="8.3125"
         id="rect4969"
         style="fill:#94592d;fill-opacity:1;fill-rule:nonzero;stroke:none" />
      <rect
         y="969.2702"
         x="183.09357"
         height="1.75"
         width="4.34375"
         id="rect4973"
         style="fill:#94592d;fill-opacity:1;fill-rule:nonzero;stroke:none" />
      <rect
         y="969.2702"
         x="175.15608"
         height="1.8125"
         width="7.125"
         id="rect4975"
         style="fill:#94592d;fill-opacity:1;fill-rule:nonzero;stroke:none" />
      <rect
         y="972.1452"
         x="179.03108"
         height="1.875"
         width="7.125"
         id="rect4977"
         style="fill:#94592d;fill-opacity:1;fill-rule:nonzero;stroke:none" />
      <rect
         y="966.2077"
         x="179.28108"
         height="1.8125"
         width="7.1875"
         id="rect4979"
         style="fill:#94592d;fill-opacity:1;fill-rule:nonzero;stroke:none" />
      <rect
         y="963.30145"
         x="183.31232"
         height="1.875"
         width="4.25"
         id="rect4981"
         style="fill:#94592d;fill-opacity:1;fill-rule:nonzero;stroke:none" />
      <rect
         y="981.12952"
         x="184.44513"
         height="1.6305916"
         width="3.0546875"
         id="rect4983"
         style="fill:#94592d;fill-opacity:1;fill-rule:nonzero;stroke:none" />
      <rect
         y="981.13959"
         x="157.6264"
         height="1.6300646"
         width="2.592206"
         id="rect4985"
         style="fill:#94592d;fill-opacity:1;fill-rule:nonzero;stroke:none" />
      <rect
         y="978.52014"
         x="157.90608"
         height="1.625"
         width="4.3125"
         id="rect4987"
         style="fill:#94592d;fill-opacity:1;fill-rule:nonzero;stroke:none" />
      <rect
         y="978.33264"
         x="163.34358"
         height="1.8125"
         width="6.8125"
         id="rect4989"
         style="fill:#94592d;fill-opacity:1;fill-rule:nonzero;stroke:none" />
      <rect
         y="978.45764"
         x="171.40608"
         height="1.5625"
         width="6.5625"
         id="rect4991"
         style="fill:#94592d;fill-opacity:1;fill-rule:nonzero;stroke:none" />
      <rect
         y="978.14514"
         x="179.53108"
         height="1.75"
         width="6.625"
         id="rect4993"
         style="fill:#94592d;fill-opacity:1;fill-rule:nonzero;stroke:none" />
      <rect
         y="975.27014"
         x="158.09358"
         height="1.8125"
         width="8.3125"
         id="rect4995"
         style="fill:#94592d;fill-opacity:1;fill-rule:nonzero;stroke:none" />
      <rect
         y="972.2077"
         x="157.84358"
         height="1.875"
         width="4.5"
         id="rect4997"
         style="fill:#94592d;fill-opacity:1;fill-rule:nonzero;stroke:none" />
      <rect
         y="966.1452"
         x="162.46858"
         height="1.75"
         width="7.6875"
         id="rect4999"
         style="fill:#94592d;fill-opacity:1;fill-rule:nonzero;stroke:none" />
      <rect
         y="966.2702"
         x="171.40608"
         height="1.6875"
         width="6.875"
         id="rect5001"
         style="fill:#94592d;fill-opacity:1;fill-rule:nonzero;stroke:none" />
      <rect
         y="963.1452"
         x="175.34358"
         height="1.75"
         width="6.8125"
         id="rect5003"
         style="fill:#94592d;fill-opacity:1;fill-rule:nonzero;stroke:none" />
      <rect
         y="963.1452"
         x="167.34358"
         height="1.9375"
         width="6.875"
         id="rect5005"
         style="fill:#94592d;fill-opacity:1;fill-rule:nonzero;stroke:none" />
      <rect
         y="963.23895"
         x="157.59358"
         height="2.03125"
         width="8.6875"
         id="rect5007"
         style="fill:#94592d;fill-opacity:1;fill-rule:nonzero;stroke:none" />
      <rect
         y="960.0827"
         x="163.09358"
         height="1.9375"
         width="7.1875"
         id="rect5009"
         style="fill:#94592d;fill-opacity:1;fill-rule:nonzero;stroke:none" />
      <rect
         y="960.2077"
         x="171.15608"
         height="1.75"
         width="6.75"
         id="rect5011"
         style="fill:#94592d;fill-opacity:1;fill-rule:nonzero;stroke:none" />
      <rect
         y="960.3952"
         x="179.34358"
         height="1.75"
         width="6.9375"
         id="rect5013"
         style="fill:#94592d;fill-opacity:1;fill-rule:nonzero;stroke:none" />
      <rect
         y="981.08264"
         x="175.40608"
         height="2"
         width="6.8125"
         id="rect5015"
         style="fill:#94592d;fill-opacity:1;fill-rule:nonzero;stroke:none" />
      <rect
         y="984.14514"
         x="179.40608"
         height="2.0625"
         width="7.0625"
         id="rect5017"
         style="fill:#94592d;fill-opacity:1;fill-rule:nonzero;stroke:none" />
      <rect
         y="984.20764"
         x="171.40608"
         height="1.875"
         width="6.6875"
         id="rect5019"
         style="fill:#94592d;fill-opacity:1;fill-rule:nonzero;stroke:none" />
      <rect
         y="981.02014"
         x="167.15608"
         height="1.9375"
         width="6.9375"
         id="rect5021"
         style="fill:#94592d;fill-opacity:1;fill-rule:nonzero;stroke:none" />
      <rect
         y="981.33264"
         x="161.34358"
         height="1.75"
         width="4.8125"
         id="rect5025"
         style="fill:#94592d;fill-opacity:1;fill-rule:nonzero;stroke:none" />
      <rect
         y="984.08264"
         x="163.53108"
         height="1.875"
         width="6.4375"
         id="rect5027"
         style="fill:#94592d;fill-opacity:1;fill-rule:nonzero;stroke:none" />
      <rect
         y="984.20764"
         x="158.09358"
         height="1.875"
         width="4.3125"
         id="rect5029"
         style="fill:#94592d;fill-opacity:1;fill-rule:nonzero;stroke:none" />
      <rect
         y="987.39514"
         x="167.28108"
         height="1.625"
         width="6.9375"
         id="rect5031"
         style="fill:#94592d;fill-opacity:1;fill-rule:nonzero;stroke:none" />
      <rect
         y="987.33264"
         x="175.15608"
         height="1.625"
         width="7.1875"
         id="rect5033"
         style="fill:#94592d;fill-opacity:1;fill-rule:nonzero;stroke:none" />
      <rect
         y="987.20764"
         x="183.46857"
         height="1.6875"
         width="3.625"
         id="rect5035"
         style="fill:#94592d;fill-opacity:1;fill-rule:nonzero;stroke:none" />
      <rect
         y="987.33264"
         x="157.96858"
         height="1.625"
         width="8.125"
         id="rect5037"
         style="fill:#94592d;fill-opacity:1;fill-rule:nonzero;stroke:none" />
      <rect
         y="966.3327"
         x="158.15608"
         height="1.6875"
         width="3.125"
         id="rect5039"
         style="fill:#94592d;fill-opacity:1;fill-rule:nonzero;stroke:none" />
      <rect
         y="960.2077"
         x="158.03108"
         height="1.875"
         width="4.125"
         id="rect5041"
         style="fill:#94592d;fill-opacity:1;fill-rule:nonzero;stroke:none" />
    </g>
    <g
       id="g3219">
      <path
         sodipodi:nodetypes="ssscscscscssccs"
         inkscape:connector-curvature="0"
         id="path3327"
         d="m 157.07872,729.87098 c 2.91909,2.9191 7.1654,1.53802 15.11082,3.19373 5.22481,1.08878 11.80139,-4.05714 17.85318,-1.51143 15.00356,6.31133 40.77714,-1.17723 40.77714,-1.17723 0,0 6.45443,-7.64241 3.78807,-13.13198 -4.29315,-8.83884 -15.40483,-7.32361 -15.40483,-7.32361 0,0 5.02392,-7.78321 -2.27284,-12.12183 -1.76637,-1.05028 -4.39757,-1.90009 -4.23458,-2.55739 1.90389,-2.47422 -11.74313,2.29102 -14.20071,3.31501 -2.06269,0.85945 -8.60021,1.94442 -7.79329,-1.51456 2.25809,-1.44342 -4.72166,-1.99718 -7.86406,-2.27351 -8.81875,-0.77549 -17.1726,6.81852 -17.42514,11.11167 -0.25254,4.29315 0.25254,10.35407 0.25254,10.35407 0,0 -6.81853,-1.76777 -8.08122,1.26269 -4.78363,-1.1688 -3.64242,9.23702 -0.50508,12.37437 z"
         style="fill:#ffffff;fill-opacity:1;stroke:none" />
      <path
         clip-path="url(#clipPath4139)"
         inkscape:connector-curvature="0"
         id="path4121"
         d="m 149.75511,725.57783 c 19.69797,2.02031 28.91562,-2.52538 28.91562,-2.52538 0,0 17.80394,5.55584 22.8547,3.53553 5.05077,-2.0203 20.70813,2.02031 25.75889,-2.0203 5.05077,-4.04061 9.59645,-7.57615 9.59645,-7.57615 l 2.52539,37.12311 -91.04001,0.12627 z"
         style="fill:#e1fbff;fill-opacity:1;stroke:none"
         sodipodi:nodetypes="ccsscccc" />
    </g>
    <use
       x="0"
       y="0"
       xlink:href="#g3219"
       id="use3223"
       transform="translate(272.94322,-124.45079)"
       width="640"
       height="480" />
    <use
       x="0"
       y="0"
       xlink:href="#use3223"
       id="use3225"
       transform="translate(-166.8772,-147.07821)"
       width="640"
       height="480" />
    <use
       x="0"
       y="0"
       xlink:href="#use3225"
       id="use3227"
       transform="translate(238.44827,257.85743)"
       width="640"
       height="480" />
  </g>
</svg>
